<?xml version="1.0" standalone="no"?>
<!DOCTYPE svg PUBLIC "-//W3C//DTD SVG 20010904//EN"
 "http://www.w3.org/TR/2001/REC-SVG-20010904/DTD/svg10.dtd">
<svg version="1.0" xmlns="http://www.w3.org/2000/svg"
 width="945.000000pt" height="945.000000pt" viewBox="0 0 945.000000 945.000000"
 preserveAspectRatio="xMidYMid meet">
<metadata>
Created by potrace 1.14, written by Peter Selinger 2001-2017
</metadata>
<g transform="translate(0.000000,945.000000) scale(0.100000,-0.100000)"
fill="#000000" stroke="none">
<path d="M903 8826 c-106 -34 -204 -120 -256 -225 l-32 -66 0 -820 0 -820 29
-60 c54 -110 157 -198 267 -229 49 -15 145 -16 845 -14 l790 3 75 37 c93 46
158 112 202 206 l32 67 3 789 c2 700 1 796 -14 845 -31 110 -119 213 -229 267
l-60 29 -805 2 c-646 2 -813 -1 -847 -11z"/>
<path d="M3888 8824 c-76 -23 -167 -92 -215 -162 -79 -116 -77 -94 -81 -742
l-3 -575 238 236 c248 247 312 297 460 366 166 76 401 110 584 84 158 -24 320
-87 460 -181 35 -24 167 -145 292 -269 l228 -226 -3 586 -3 585 -38 76 c-44
89 -116 161 -205 205 l-57 28 -805 2 c-682 2 -812 0 -852 -13z"/>
<path d="M6878 8824 c-114 -35 -220 -138 -270 -263 l-23 -56 0 -785 c0 -736 1
-788 18 -838 44 -126 149 -231 271 -272 62 -20 73 -20 857 -18 l795 3 76 38
c91 45 157 112 202 207 l31 65 0 810 0 810 -31 66 c-53 112 -140 192 -251 230
-54 18 -89 19 -842 18 -657 0 -794 -3 -833 -15z"/>
<path d="M943 5845 c-129 -28 -236 -112 -295 -232 l-33 -68 0 -820 0 -820 28
-57 c44 -89 116 -161 205 -205 l76 -38 585 -3 586 -3 -226 228 c-124 125 -245
257 -269 292 -248 369 -253 822 -15 1193 32 50 122 148 283 311 l236 237 -549
-1 c-423 0 -564 -4 -612 -14z"/>
<path d="M7571 5633 c244 -247 296 -311 364 -454 169 -358 128 -763 -111
-1090 -26 -35 -142 -160 -258 -277 l-211 -213 585 3 585 3 65 31 c82 39 145
96 188 167 64 107 63 86 60 950 l-3 783 -38 76 c-63 129 -179 216 -317 238
-39 6 -282 10 -600 10 l-534 0 225 -227z"/>
<path d="M2910 5648 c0 -13 68 -466 150 -1007 83 -542 150 -991 150 -998 0
-11 34 -13 177 -11 l177 3 83 340 c88 364 147 615 158 680 7 38 9 36 29 -60
12 -55 69 -295 126 -532 l105 -433 177 0 176 0 6 28 c3 15 69 461 146 992 77
531 143 977 146 993 l6 27 -161 0 -160 0 -6 -32 c-6 -37 -149 -1348 -161
-1473 l-7 -80 -9 45 c-5 25 -64 264 -131 532 l-122 488 -142 0 c-79 0 -143 -3
-143 -6 0 -3 -45 -175 -99 -382 -55 -207 -114 -444 -133 -527 l-33 -149 -8 89
c-4 50 -44 398 -87 774 -44 377 -80 693 -80 703 0 17 -13 18 -165 18 -164 0
-165 0 -165 -22z"/>
<path d="M4950 4650 l0 -1020 150 0 150 0 0 465 0 465 390 0 390 0 0 -465 0
-465 155 0 155 0 -2 1018 -3 1017 -152 3 -153 3 0 -421 0 -420 -390 0 -390 0
0 420 0 420 -150 0 -150 0 0 -1020z"/>
<path d="M950 2859 c-71 -14 -171 -68 -222 -121 -26 -26 -62 -78 -80 -115
l-33 -68 -3 -799 c-2 -718 -1 -805 14 -850 36 -113 120 -206 232 -259 l67 -32
810 0 810 0 65 31 c95 45 162 111 207 202 l38 76 3 795 c2 785 2 795 -19 858
-39 119 -132 213 -260 266 l-54 22 -765 2 c-421 0 -785 -3 -810 -8z"/>
<path d="M6920 2856 c-166 -37 -298 -174 -329 -341 -14 -76 -15 -1465 -1
-1550 22 -135 116 -256 247 -318 l68 -32 785 -3 c758 -2 787 -2 850 17 122 37
224 131 273 251 l22 55 0 805 0 805 -32 68 c-62 131 -183 225 -318 247 -92 15
-1496 12 -1565 -4z"/>
<path d="M3590 1570 c0 -318 4 -561 10 -600 22 -138 109 -254 238 -317 l76
-38 783 -3 c864 -3 843 -4 950 60 71 43 128 106 167 188 l31 65 3 585 3 585
-213 -211 c-117 -116 -242 -232 -277 -258 -327 -239 -732 -280 -1090 -111
-143 68 -207 120 -453 364 l-228 225 0 -534z"/>
</g>
</svg>
